<mxfile host="app.diagrams.net" modified="2023-11-09T12:08:23.729Z" agent="Mozilla/5.0 (Windows NT 10.0; Win64; x64) AppleWebKit/537.36 (KHTML, like Gecko) Chrome/119.0.0.0 Safari/537.36" etag="kc2Frk36dlViMTpaS-2h" version="22.1.0" type="device">
  <diagram name="第 1 页" id="cMDbxwdJdnLHXoHXhYGL">
    <mxGraphModel dx="1434" dy="750" grid="1" gridSize="10" guides="1" tooltips="1" connect="1" arrows="1" fold="1" page="1" pageScale="1" pageWidth="827" pageHeight="1169" math="0" shadow="0">
      <root>
        <mxCell id="0" />
        <mxCell id="1" parent="0" />
        <mxCell id="ptXoL1sZkddI6ab5TLPi-3" value="" style="edgeStyle=orthogonalEdgeStyle;rounded=0;orthogonalLoop=1;jettySize=auto;html=1;" edge="1" parent="1" source="ptXoL1sZkddI6ab5TLPi-1" target="ptXoL1sZkddI6ab5TLPi-2">
          <mxGeometry relative="1" as="geometry" />
        </mxCell>
        <mxCell id="ptXoL1sZkddI6ab5TLPi-1" value="start&lt;br&gt;初始化 status = no-wifi" style="rounded=0;whiteSpace=wrap;html=1;" vertex="1" parent="1">
          <mxGeometry x="65" y="170" width="150" height="60" as="geometry" />
        </mxCell>
        <mxCell id="ptXoL1sZkddI6ab5TLPi-5" value="" style="edgeStyle=orthogonalEdgeStyle;rounded=0;orthogonalLoop=1;jettySize=auto;html=1;entryX=0;entryY=0.5;entryDx=0;entryDy=0;" edge="1" parent="1" source="ptXoL1sZkddI6ab5TLPi-2" target="ptXoL1sZkddI6ab5TLPi-6">
          <mxGeometry relative="1" as="geometry">
            <Array as="points">
              <mxPoint x="240" y="350" />
              <mxPoint x="240" y="430" />
            </Array>
          </mxGeometry>
        </mxCell>
        <mxCell id="ptXoL1sZkddI6ab5TLPi-2" value="check status" style="rounded=1;whiteSpace=wrap;html=1;" vertex="1" parent="1">
          <mxGeometry x="80" y="320" width="120" height="60" as="geometry" />
        </mxCell>
        <mxCell id="ptXoL1sZkddI6ab5TLPi-12" value="" style="edgeStyle=orthogonalEdgeStyle;rounded=0;orthogonalLoop=1;jettySize=auto;html=1;" edge="1" parent="1" source="ptXoL1sZkddI6ab5TLPi-4" target="ptXoL1sZkddI6ab5TLPi-11">
          <mxGeometry relative="1" as="geometry" />
        </mxCell>
        <mxCell id="ptXoL1sZkddI6ab5TLPi-4" value="no-wifi" style="rounded=1;whiteSpace=wrap;html=1;" vertex="1" parent="1">
          <mxGeometry x="280" y="320" width="120" height="60" as="geometry" />
        </mxCell>
        <mxCell id="ptXoL1sZkddI6ab5TLPi-10" value="" style="edgeStyle=orthogonalEdgeStyle;rounded=0;orthogonalLoop=1;jettySize=auto;html=1;" edge="1" parent="1" source="ptXoL1sZkddI6ab5TLPi-6" target="ptXoL1sZkddI6ab5TLPi-9">
          <mxGeometry relative="1" as="geometry" />
        </mxCell>
        <mxCell id="ptXoL1sZkddI6ab5TLPi-6" value="get-wifi-from-bt" style="rounded=1;whiteSpace=wrap;html=1;" vertex="1" parent="1">
          <mxGeometry x="280" y="400" width="120" height="60" as="geometry" />
        </mxCell>
        <mxCell id="ptXoL1sZkddI6ab5TLPi-8" value="" style="endArrow=classic;html=1;rounded=0;exitX=1;exitY=0.5;exitDx=0;exitDy=0;entryX=0;entryY=0.5;entryDx=0;entryDy=0;" edge="1" parent="1" source="ptXoL1sZkddI6ab5TLPi-2" target="ptXoL1sZkddI6ab5TLPi-4">
          <mxGeometry width="50" height="50" relative="1" as="geometry">
            <mxPoint x="230" y="360" as="sourcePoint" />
            <mxPoint x="280" y="310" as="targetPoint" />
          </mxGeometry>
        </mxCell>
        <mxCell id="ptXoL1sZkddI6ab5TLPi-9" value="bt get wifi&lt;br&gt;ssd and password" style="rounded=1;whiteSpace=wrap;html=1;" vertex="1" parent="1">
          <mxGeometry x="440" y="400" width="120" height="60" as="geometry" />
        </mxCell>
        <mxCell id="ptXoL1sZkddI6ab5TLPi-11" value="link" style="rounded=1;whiteSpace=wrap;html=1;" vertex="1" parent="1">
          <mxGeometry x="440" y="320" width="120" height="60" as="geometry" />
        </mxCell>
        <mxCell id="ptXoL1sZkddI6ab5TLPi-13" value="fail" style="rounded=1;whiteSpace=wrap;html=1;" vertex="1" parent="1">
          <mxGeometry x="500" y="160" width="120" height="60" as="geometry" />
        </mxCell>
        <mxCell id="ptXoL1sZkddI6ab5TLPi-14" value="success" style="rounded=1;whiteSpace=wrap;html=1;" vertex="1" parent="1">
          <mxGeometry x="630" y="240" width="120" height="60" as="geometry" />
        </mxCell>
        <mxCell id="ptXoL1sZkddI6ab5TLPi-15" style="edgeStyle=orthogonalEdgeStyle;rounded=0;orthogonalLoop=1;jettySize=auto;html=1;exitX=0.5;exitY=1;exitDx=0;exitDy=0;" edge="1" parent="1" source="ptXoL1sZkddI6ab5TLPi-14" target="ptXoL1sZkddI6ab5TLPi-14">
          <mxGeometry relative="1" as="geometry" />
        </mxCell>
        <mxCell id="ptXoL1sZkddI6ab5TLPi-16" value="" style="endArrow=classic;html=1;rounded=0;entryX=0;entryY=0.5;entryDx=0;entryDy=0;" edge="1" parent="1" target="ptXoL1sZkddI6ab5TLPi-14">
          <mxGeometry width="50" height="50" relative="1" as="geometry">
            <mxPoint x="560" y="350" as="sourcePoint" />
            <mxPoint x="600" y="310" as="targetPoint" />
          </mxGeometry>
        </mxCell>
        <mxCell id="ptXoL1sZkddI6ab5TLPi-17" value="" style="endArrow=classic;html=1;rounded=0;entryX=0.5;entryY=1;entryDx=0;entryDy=0;exitX=0.5;exitY=0;exitDx=0;exitDy=0;" edge="1" parent="1" source="ptXoL1sZkddI6ab5TLPi-11" target="ptXoL1sZkddI6ab5TLPi-13">
          <mxGeometry width="50" height="50" relative="1" as="geometry">
            <mxPoint x="460" y="280" as="sourcePoint" />
            <mxPoint x="510" y="230" as="targetPoint" />
          </mxGeometry>
        </mxCell>
        <mxCell id="ptXoL1sZkddI6ab5TLPi-19" value="" style="endArrow=classic;html=1;rounded=0;entryX=0.5;entryY=1;entryDx=0;entryDy=0;exitX=0.5;exitY=0;exitDx=0;exitDy=0;" edge="1" parent="1" source="ptXoL1sZkddI6ab5TLPi-13" target="ptXoL1sZkddI6ab5TLPi-20">
          <mxGeometry width="50" height="50" relative="1" as="geometry">
            <mxPoint x="520" y="180" as="sourcePoint" />
            <mxPoint x="560" y="130" as="targetPoint" />
          </mxGeometry>
        </mxCell>
        <mxCell id="ptXoL1sZkddI6ab5TLPi-22" value="" style="edgeStyle=orthogonalEdgeStyle;rounded=0;orthogonalLoop=1;jettySize=auto;html=1;" edge="1" parent="1" source="ptXoL1sZkddI6ab5TLPi-20" target="ptXoL1sZkddI6ab5TLPi-21">
          <mxGeometry relative="1" as="geometry" />
        </mxCell>
        <mxCell id="ptXoL1sZkddI6ab5TLPi-20" value="has next-wifi" style="rounded=1;whiteSpace=wrap;html=1;" vertex="1" parent="1">
          <mxGeometry x="490" y="50" width="120" height="60" as="geometry" />
        </mxCell>
        <mxCell id="ptXoL1sZkddI6ab5TLPi-21" value="status = no-wifi" style="whiteSpace=wrap;html=1;rounded=1;" vertex="1" parent="1">
          <mxGeometry x="290" y="50" width="120" height="60" as="geometry" />
        </mxCell>
        <mxCell id="ptXoL1sZkddI6ab5TLPi-23" value="" style="endArrow=classic;html=1;rounded=0;exitX=0.5;exitY=1;exitDx=0;exitDy=0;entryX=0.75;entryY=0;entryDx=0;entryDy=0;" edge="1" parent="1" source="ptXoL1sZkddI6ab5TLPi-21" target="ptXoL1sZkddI6ab5TLPi-2">
          <mxGeometry width="50" height="50" relative="1" as="geometry">
            <mxPoint x="250" y="260" as="sourcePoint" />
            <mxPoint x="300" y="210" as="targetPoint" />
          </mxGeometry>
        </mxCell>
        <mxCell id="ptXoL1sZkddI6ab5TLPi-24" value="connected-and-not -initialized" style="rounded=1;whiteSpace=wrap;html=1;" vertex="1" parent="1">
          <mxGeometry x="280" y="490" width="170" height="60" as="geometry" />
        </mxCell>
        <mxCell id="ptXoL1sZkddI6ab5TLPi-25" value="" style="endArrow=classic;html=1;rounded=0;entryX=0;entryY=0.5;entryDx=0;entryDy=0;exitX=1;exitY=0.5;exitDx=0;exitDy=0;" edge="1" parent="1" source="ptXoL1sZkddI6ab5TLPi-2" target="ptXoL1sZkddI6ab5TLPi-24">
          <mxGeometry width="50" height="50" relative="1" as="geometry">
            <mxPoint x="165" y="520" as="sourcePoint" />
            <mxPoint x="215" y="470" as="targetPoint" />
            <Array as="points">
              <mxPoint x="240" y="350" />
              <mxPoint x="240" y="520" />
            </Array>
          </mxGeometry>
        </mxCell>
        <mxCell id="ptXoL1sZkddI6ab5TLPi-26" value="" style="endArrow=classic;html=1;rounded=0;exitX=0.5;exitY=0;exitDx=0;exitDy=0;" edge="1" parent="1" source="ptXoL1sZkddI6ab5TLPi-14">
          <mxGeometry width="50" height="50" relative="1" as="geometry">
            <mxPoint x="680" y="240" as="sourcePoint" />
            <mxPoint x="720" y="140" as="targetPoint" />
          </mxGeometry>
        </mxCell>
      </root>
    </mxGraphModel>
  </diagram>
</mxfile>
